{"title":"Of Monsters And Men - Little Talks [Music Video] 720p [Sbyky]","uid":8797917,"size":77844879,"categoryP":"video","categoryS":"music_videos","magnet":"?xt=urn:btih:2bae4e078f3913799304b7ad65c60dc58a1c2616&amp;dn=Of+Monsters+And+Men+-+Little+Talks+%5BMusic+Video%5D+720p+%5BSbyky%5D&amp;tr=udp%3A%2F%2Ftracker.openbittorrent.com%3A80&amp;tr=udp%3A%2F%2Fopen.demonii.com%3A1337&amp;tr=udp%3A%2F%2Ftracker.coppersurfer.tk%3A6969&amp;tr=udp%3A%2F%2Fexodus.desync.com%3A6969","seeders":0,"leechers":1,"uploader":"Sbyky","files":-1,"time":1376120806,"description":"[IMG]http://www.shotpix.com/photos/20130808137600261399083.jpg[/IMG]\n\nGeneral\nComplete name                            : Of Monsters And Men - Little Talks [Music Video] 720p [Sbyky].MP4\nFormat                                   : MPEG-4\nFormat profile                           : Base Media / Version 2\nCodec ID                                 : mp42\nFile size                                : 74.2 MiB\nDuration                                 : 4mn 14s\nOverall bit rate mode                    : Variable\nOverall bit rate                         : 2 451 Kbps\nEncoded date                             : UTC 2012-01-30 23:15:43\nTagged date                              : UTC 2012-01-30 23:15:43\n\nVideo\nID                                       : 1\nFormat                                   : AVC\nFormat/Info                              : Advanced Video Codec\nFormat profile                           : &lt;a class=&quot;__cf_email__&quot; href=&quot;/cdn-cgi/l/email-protection&quot; data-cfemail=&quot;b7ffded0dff7fb849986&quot;&gt;[email&amp;#160;protected]&lt;/a&gt;&lt;script cf-hash='f9e31' type=&quot;text/javascript&quot;&gt;\n/* &lt;![CDATA[ */!function(){try{var t=&quot;currentScript&quot;in document?document.currentScript:function(){for(var t=document.getElementsByTagName(&quot;script&quot;),e=t.length;e--;)if(t[e].getAttribute(&quot;cf-hash&quot;))return t[e]}();if(t&amp;&amp;t.previousSibling){var e,r,n,i,c=t.previousSibling,a=c.getAttribute(&quot;data-cfemail&quot;);if(a){for(e=&quot;&quot;,r=parseInt(a.substr(0,2),16),n=2;a.length-n;n+=2)i=parseInt(a.substr(n,2),16)^r,e+=String.fromCharCode(i);e=document.createTextNode(e),c.parentNode.replaceChild(e,c)}}}catch(u){}}();/* ]]&gt; */&lt;/script&gt;\nFormat settings, CABAC                   : Yes\nFormat settings, ReFrames                : 1 frame\nFormat settings, GOP                     : M=1, N=30\nCodec ID                                 : avc1\nCodec ID/Info                            : Advanced Video Coding\nDuration                                 : 4mn 14s\nBit rate                                 : 2 296 Kbps\nMaximum bit rate                         : 11.4 Mbps\nWidth                                    : 1 280 pixels\nHeight                                   : 720 pixels\nDisplay aspect ratio                     : 16:9\nFrame rate mode                          : Constant\nFrame rate                               : 23.976 fps\nColor space                              : YUV\nChroma subsampling                       : 4:2:0\nBit depth                                : 8 bits\nScan type                                : Progressive\nBits/(Pixel*Frame)                       : 0.104\nStream size                              : 69.6 MiB (94%)\nTagged date                              : UTC 2012-01-30 23:15:43\n\nAudio\nID                                       : 2\nFormat                                   : AAC\nFormat/Info                              : Advanced Audio Codec\nFormat profile                           : LC\nCodec ID                                 : 40\nDuration                                 : 4mn 14s\nBit rate mode                            : Variable\nBit rate                                 : 152 Kbps\nMaximum bit rate                         : 189 Kbps\nChannel(s)                               : 2 channels\nChannel positions                        : Front: L R\nSampling rate                            : 44.1 KHz\nCompression mode                         : Lossy\nStream size                              : 4.60 MiB (6%)\nTitle                                    : IsoMedia File Produced by Google, 5-11-2011\nEncoded date                             : UTC 2012-01-30 23:15:43\nTagged date                              : UTC 2012-01-30 23:15:43\n\nShared By Sbyky\n[IMG]http://www.shotpix.com/photos/20130722137449689157289.gif[/IMG]\n[IMG]http://www.shotpix.com/photos/20130722137449694197310.gif[/IMG]","torrent":{"xt":"urn:btih:2bae4e078f3913799304b7ad65c60dc58a1c2616","amp;dn":"Of+Monsters+And+Men+-+Little+Talks+%5BMusic+Video%5D+720p+%5BSbyky%5D","amp;tr":["udp%3A%2F%2Ftracker.openbittorrent.com%3A80","udp%3A%2F%2Fopen.demonii.com%3A1337","udp%3A%2F%2Ftracker.coppersurfer.tk%3A6969","udp%3A%2F%2Fexodus.desync.com%3A6969"],"infoHash":"2bae4e078f3913799304b7ad65c60dc58a1c2616","infoHashBuffer":{"type":"Buffer","data":[43,174,78,7,143,57,19,121,147,4,183,173,101,198,13,197,138,28,38,22]},"announce":[],"urlList":[]}}